<svg width="35" height="37" viewBox="0 0 35 37" fill="none" xmlns="http://www.w3.org/2000/svg">
<path id="Vector" d="M18.375 37C17.6458 37 17.0263 36.7504 16.5165 36.2512C16.0067 35.752 15.7512 35.1353 15.75 34.4012C15.75 34.0488 15.8159 33.7111 15.9478 33.3881C16.0796 33.0651 16.2762 32.7861 16.5375 32.5512L18.375 30.8333L20.2125 32.5512C20.475 32.7861 20.6722 33.0651 20.804 33.3881C20.9358 33.7111 21.0012 34.0488 21 34.4012C21 35.1353 20.7451 35.752 20.2352 36.2512C19.7254 36.7504 19.1053 37 18.375 37ZM12.3375 34.3571L10.5 32.5071L15.6625 27.3095L17.5 29.1595L12.3375 34.3571ZM23.625 31.7143L21 29.0714L23.625 26.4286L26.25 29.0714L23.625 31.7143ZM7.875 31.7143L5.25 29.0714L7.875 26.4286L10.5 29.0714L7.875 31.7143ZM9.625 24.6667C6.97083 24.6667 4.70342 23.7199 2.82275 21.8265C0.942083 19.933 0.00116667 17.6496 0 14.9762C0 12.5389 0.802083 10.4099 2.40625 8.58929C4.01042 6.76865 5.99375 5.69683 8.35625 5.37381C9.28958 3.7 10.5659 2.38562 12.1853 1.43067C13.8046 0.475717 15.5762 -0.00117244 17.5 2.1645e-06C20.125 2.1645e-06 22.4076 0.844542 24.3477 2.53362C26.2879 4.2227 27.4616 6.32935 27.8687 8.85357C29.8812 9.02976 31.5729 9.86667 32.9438 11.3643C34.3146 12.8619 35 14.6532 35 16.7381C35 18.9405 34.2347 20.8128 32.704 22.355C31.1733 23.8973 29.3137 24.6678 27.125 24.6667H9.625ZM9.625 21.1429H27.125C28.35 21.1429 29.3854 20.7171 30.2312 19.8655C31.0771 19.0139 31.5 17.9714 31.5 16.7381C31.5 15.5048 31.0771 14.4623 30.2312 13.6107C29.3854 12.7591 28.35 12.3333 27.125 12.3333H24.5V10.5714C24.5 8.63334 23.8146 6.97421 22.4438 5.59405C21.0729 4.21389 19.425 3.52381 17.5 3.52381C16.1 3.52381 14.8242 3.90556 13.6727 4.66905C12.5212 5.43254 11.6532 6.46032 11.0687 7.75238L10.6312 8.80953H9.5375C7.875 8.86826 6.45342 9.49256 5.27275 10.6824C4.09208 11.8723 3.50117 13.3036 3.5 14.9762C3.5 16.6794 4.09792 18.1329 5.29375 19.3369C6.48958 20.5409 7.93333 21.1429 9.625 21.1429Z" fill="white"/>
</svg>
