<svg width="31" height="31" viewBox="0 0 31 31" fill="none" xmlns="http://www.w3.org/2000/svg">
<path id="Vector" d="M13.3472 4.73611C13.3472 3.48002 12.8482 2.27537 11.96 1.38717C11.0719 0.498982 9.86721 0 8.61111 0C7.35502 0 6.15037 0.498982 5.26217 1.38717C4.37398 2.27537 3.875 3.48002 3.875 4.73611C3.875 5.99221 4.37398 7.19685 5.26217 8.08505C6.15037 8.97324 7.35502 9.47222 8.61111 9.47222C9.86721 9.47222 11.0719 8.97324 11.96 8.08505C12.8482 7.19685 13.3472 5.99221 13.3472 4.73611ZM5.59722 4.73611C5.59722 4.34032 5.67518 3.94841 5.82664 3.58275C5.9781 3.21708 6.2001 2.88484 6.47997 2.60497C6.75984 2.3251 7.09208 2.1031 7.45775 1.95164C7.82341 1.80018 8.21532 1.72222 8.61111 1.72222C9.0069 1.72222 9.39881 1.80018 9.76448 1.95164C10.1301 2.1031 10.4624 2.3251 10.7423 2.60497C11.0221 2.88484 11.2441 3.21708 11.3956 3.58275C11.547 3.94841 11.625 4.34032 11.625 4.73611C11.625 5.53544 11.3075 6.30204 10.7423 6.86725C10.177 7.43247 9.41044 7.75 8.61111 7.75C7.81178 7.75 7.04518 7.43247 6.47997 6.86725C5.91476 6.30204 5.59722 5.53544 5.59722 4.73611ZM2.58333 11.1944H9.78739C9.50494 11.7283 9.29483 12.307 9.17083 12.9167H2.58333C2.35495 12.9167 2.13593 13.0074 1.97444 13.1689C1.81295 13.3304 1.72222 13.5494 1.72222 13.7778V14.6389C1.72222 16.8089 3.61494 19.1408 7.05422 19.685C6.49967 20.0639 6.03811 20.5685 5.70917 21.1558C2.07528 20.1724 0 17.3721 0 14.6389V13.7778C0 13.0926 0.272172 12.4356 0.756641 11.9511C1.24111 11.4666 1.89819 11.1944 2.58333 11.1944ZM11.8472 11.1944C12.7152 10.1439 14.0292 9.47222 15.5 9.47222C16.5314 9.47042 17.535 9.80609 18.3578 10.428C19.1806 11.0499 19.7774 11.9239 20.057 12.9167C20.3063 13.8027 20.2922 14.7422 20.0166 15.6205C19.7409 16.4987 19.2156 17.2777 18.5047 17.8624C17.7938 18.4471 16.9281 18.8123 16.0132 18.9133C15.0983 19.0143 14.1737 18.8468 13.3524 18.4312C12.72 18.1094 12.168 17.6495 11.7372 17.0857C11.3065 16.5219 11.0079 15.8685 10.8635 15.1737C10.7192 14.479 10.7328 13.7607 10.9034 13.072C11.0739 12.3832 11.3953 11.7415 11.8472 11.1944ZM12.7789 12.9167C12.6093 13.2745 12.5118 13.6622 12.492 14.0576C12.4722 14.4531 12.5305 14.8486 12.6635 15.2215C12.9323 15.9747 13.4892 16.5903 14.2118 16.9329C14.9344 17.2755 15.7635 17.3169 16.5166 17.0482C17.2698 16.7795 17.8854 16.2226 18.228 15.5C18.5706 14.7772 18.612 13.9479 18.3431 13.1945C18.0742 12.4412 17.5171 11.8255 16.7943 11.4829C16.0714 11.1403 15.2421 11.0989 14.4888 11.3678C13.7354 11.6367 13.1197 12.1938 12.7772 12.9167M25.2908 21.1558C24.9628 20.5682 24.5022 20.0652 23.9458 19.6867C27.3833 19.1408 29.2778 16.8072 29.2778 14.6389V13.7778C29.2778 13.5494 29.1871 13.3304 29.0256 13.1689C28.8641 13.0074 28.645 12.9167 28.4167 12.9167H21.8292C21.7075 12.3162 21.5004 11.7362 21.2143 11.1944H28.4167C29.1018 11.1944 29.7589 11.4666 30.2434 11.9511C30.7278 12.4356 31 13.0926 31 13.7778V14.6389C31 17.3721 28.923 20.1707 25.2908 21.1558ZM23.2276 21.3056C22.7576 20.893 22.1532 20.6658 21.5278 20.6667H9.47222C9.13272 20.6658 8.79638 20.732 8.48255 20.8615C8.16871 20.991 7.88357 21.1812 7.6435 21.4213C7.40344 21.6613 7.21318 21.9465 7.08368 22.2603C6.95418 22.5742 6.88798 22.9105 6.88889 23.25V24.1111C6.88889 27.5056 10.0922 31 15.5 31C20.9078 31 24.1111 27.5056 24.1111 24.1111V23.25C24.1111 22.475 23.7701 21.7792 23.2276 21.3039M8.61111 23.25C8.61111 23.0216 8.70184 22.8026 8.86333 22.6411C9.02481 22.4796 9.24384 22.3889 9.47222 22.3889H21.5278C21.7562 22.3889 21.9752 22.4796 22.1367 22.6411C22.2982 22.8026 22.3889 23.0216 22.3889 23.25V24.1111C22.3889 26.5877 19.9227 29.2778 15.5 29.2778C11.0773 29.2778 8.61111 26.5877 8.61111 24.1111V23.25ZM22.3889 0C23.645 0 24.8496 0.498982 25.7378 1.38717C26.626 2.27537 27.125 3.48002 27.125 4.73611C27.125 5.99221 26.626 7.19685 25.7378 8.08505C24.8496 8.97324 23.645 9.47222 22.3889 9.47222C21.1328 9.47222 19.9281 8.97324 19.04 8.08505C18.1518 7.19685 17.6528 5.99221 17.6528 4.73611C17.6528 3.48002 18.1518 2.27537 19.04 1.38717C19.9281 0.498982 21.1328 0 22.3889 0ZM22.3889 1.72222C21.5896 1.72222 20.823 2.03976 20.2577 2.60497C19.6925 3.17018 19.375 3.93678 19.375 4.73611C19.375 5.53544 19.6925 6.30204 20.2577 6.86725C20.823 7.43247 21.5896 7.75 22.3889 7.75C23.1882 7.75 23.9548 7.43247 24.52 6.86725C25.0852 6.30204 25.4028 5.53544 25.4028 4.73611C25.4028 3.93678 25.0852 3.17018 24.52 2.60497C23.9548 2.03976 23.1882 1.72222 22.3889 1.72222Z" fill="white"/>
</svg>
