<svg width="24" height="21" viewBox="0 0 24 21" fill="none" xmlns="http://www.w3.org/2000/svg">
<path id="Vector" d="M2.03197 19.8006C0.867928 19.8006 0.147485 18.5324 0.743552 17.5325L10.4152 1.30905C10.997 0.333177 12.4103 0.333178 12.9921 1.30905L22.6638 17.5325C23.2598 18.5324 22.5394 19.8006 21.3753 19.8006H2.03197ZM11.7383 17.3065C12.6577 17.3065 13.403 16.5612 13.403 15.6418C13.403 14.7224 12.6577 13.9771 11.7383 13.9771H11.669C10.7497 13.9771 10.0043 14.7224 10.0043 15.6418C10.0043 16.5612 10.7497 17.3065 11.669 17.3065H11.7383ZM11.7037 12.6477C12.6422 12.6477 13.403 11.8869 13.403 10.9484V8.68827C13.403 7.74976 12.6422 6.98896 11.7037 6.98896C10.7652 6.98896 10.0043 7.74977 10.0043 8.68827V10.9484C10.0043 11.8869 10.7652 12.6477 11.7037 12.6477Z" fill="#F41515" stroke="black"/>
</svg>
