<svg width="16" height="23" viewBox="0 0 16 23" fill="none" xmlns="http://www.w3.org/2000/svg">
<g id="Group">
<path id="Vector" d="M7.99989 18.0456C7.5005 18.0457 7.01505 17.8809 6.61881 17.577C6.22257 17.273 5.93769 16.8468 5.80835 16.3645" stroke="#21C6FA" stroke-width="2" stroke-linecap="round"/>
<path id="Vector_2" d="M6.21225 2.93514C6.92802 1.718 7.28647 1.10886 7.79806 1.01811C7.93158 0.993962 8.06836 0.993962 8.20188 1.01811C8.71347 1.10886 9.07192 1.718 9.78768 2.93514L11.6798 6.15212C13.0021 8.40043 14.0339 10.8074 14.7504 13.3155C15.9154 17.3911 12.8561 21.4486 8.61591 21.4486H7.38402C3.14501 21.4486 0.0845697 17.3911 1.24953 13.3155C1.96603 10.8074 2.99782 8.40043 4.32018 6.15212L6.21225 2.93514Z" stroke="#18ABDA" stroke-width="2"/>
</g>
</svg>
